<svg id="Layer_1" enable-background="new 0 0 512 512" height="512" viewBox="0 0 512 512" width="512" xmlns="http://www.w3.org/2000/svg"><g><path d="m505.751 130.028-99.41-55.171c-1.082-.743-2.37-1.203-3.76-1.291-.067-.005-.133-.007-.2-.01-.094-.003-.186-.014-.28-.014h-17.869c-4.143 0-7.5 3.358-7.5 7.499 0 4.142 3.357 7.499 7.5 7.499h10.369v108.939l-277.203 78.869v-187.808h55.31c5.707 4.083 43.506 29.997 83.292 29.997 39.785 0 77.584-25.914 83.291-29.997h12.785c4.143 0 7.5-3.358 7.5-7.499 0-4.142-3.357-7.499-7.5-7.499h-8.276c-1.024-3.721-3.112-7.815-6.249-12.07-8.117-11.011-17.348-14.776-24.095-9.833-.546.395-30.326 21.766-57.456 21.766-27.251 0-57.16-21.551-57.425-21.744-6.735-4.969-15.97-1.226-24.099 9.774-3.155 4.269-5.253 8.375-6.28 12.107h-58.299c-1.574 0-3.033.487-4.239 1.315l-43.968 24.401c-3.622 2.01-4.928 6.575-2.918 10.196 1.37 2.468 3.928 3.861 6.564 3.861 1.231 0 2.48-.304 3.633-.944l33.428-18.552v133.596l-72.035 16.461-15.103-101.696 25.748-14.289c3.622-2.01 4.928-6.575 2.918-10.196s-6.576-4.928-10.197-2.918l-27.458 15.238c-4.408 2.426-6.877 7.402-6.142 12.391l15.852 106.738c.499 3.326 2.379 6.324 5.161 8.224 2.035 1.389 4.441 2.118 6.876 2.118.899 0 1.803-.1 2.692-.302l71.689-16.382v160.667c0 4.142 3.358 7.499 7.5 7.499s7.5-3.358 7.5-7.499v-26.102l277.203-78.87v149.005h-277.203v-11.422c0-4.142-3.358-7.499-7.5-7.499s-7.5 3.358-7.5 7.499v12.921c0 7.443 6.056 13.499 13.5 13.499h280.203c7.444 0 13.5-6.056 13.5-13.499v-159.123c.081-.44.131-.89.131-1.35v-45.706l71.567 16.364c.887.201 1.787.3 2.684.3 2.432 0 4.84-.728 6.874-2.117 2.782-1.9 4.663-4.897 5.164-8.234l15.852-106.739c.732-4.981-1.738-9.956-6.122-12.368zm-314.195-64.975c7.529 5.135 36.232 23.351 64.444 23.351 28.321 0 56.912-18.191 64.449-23.35 3.127 2.104 7.794 8.545 8.838 12.19-7.893 5.471-40.114 26.295-73.287 26.295-33.176 0-65.399-20.826-73.29-26.296 1.046-3.646 5.717-10.089 8.846-12.19zm-74.156 296.719v-69.83l277.201-78.869v69.829zm364.237-117.895-71.905-16.44v-24.332c0-.45-.052-.891-.131-1.326v-107.959l87.139 48.36z"/></g></svg>